<?xml version="1.0" encoding="utf-8"?>
<!-- Generator: Adobe Illustrator 19.2.1, SVG Export Plug-In . SVG Version: 6.00 Build 0)  -->
<svg version="1.1" id="layer" xmlns="http://www.w3.org/2000/svg" xmlns:xlink="http://www.w3.org/1999/xlink" x="0px" y="0px"
	 viewBox="0 0 652 652" style="enable-background:new 0 0 652 652;" xml:space="preserve">
<style type="text/css">
	.st0{fill:#D5B527;}
	.st1{fill:#B11116;}
</style>
<path class="st0" d="M108.3,189.9c1.8-0.3,3.7-0.1,5.4,0.7c2.7,1.2,4.9,3.6,5.4,6.5c0.4,2.4-0.3,4.9-1.9,6.8c-0.4,0.5-1,0.9-1.4,1.4
	c8.3,0.8,16.8,2.7,23.8,7.4c0.7,0.4,1.3,1,2.1,1.4c6.8,0.8,13.7,2.1,19.6,5.7c2.7,1.7,5.1,3.9,6.7,6.6c1.5,2.6,2.3,5.6,2.1,8.6
	c0.1,2.3-0.5,4.6-1.5,6.6c-1.4,2.9-3.7,5.4-6.3,7.4c-2.5,1.8-5.3,3.2-8.2,4.2c-0.8,0.3-1.5,0.4-2.3,0.8c2.8,0.3,5.7,0.7,8.3,1.7
	c0.2,0.6,0.3,1.2,0.4,1.7c0.6,3.5,1.3,7,2,10.5c-14-1.8-28.1-3.1-42.3-3.3c-3.3-0.2-6.6-0.1-9.9-0.1c-2.4,0-4.9-0.1-7.3,0.1
	c-5.2,0-10.4,0.4-15.7,0.6c-4,0.3-7.9,0.6-11.9,1c-5.8,0.6-11.7,1.2-17.5,2.1c-0.3,0-0.6,0-0.8,0c0.9-4.2,1.6-8.4,2.5-12.5
	c1-0.5,2.1-0.6,3.1-0.9c1.9-0.4,3.9-0.6,5.8-0.9c-4.1-0.9-8-2.7-11.3-5.3c-3.3-2.6-6.1-6.2-7.1-10.3c-0.5-1.6-0.3-3.3-0.3-4.9
	c0.2-3.8,1.9-7.5,4.6-10.2c3.4-3.6,8.1-5.7,12.8-7.1c3.6-1,7.3-1.7,11.1-2.1c0.4-0.2,0.6-0.4,1-0.7c4.7-3.4,10.3-5.5,16-6.8
	c3-0.6,5.9-1.1,9-1.4c-1.5-1.2-2.7-2.8-3.1-4.7c-0.6-2-0.3-4.3,0.8-6.1C103.2,192.1,105.6,190.4,108.3,189.9z M90.1,218
	c-3,2.2-5.5,5-6.9,8.4c-0.7,1.6-1,3.4-1.1,5.2c0,4.1,1.8,8,4.6,11c2.7,3,6.3,5,10.1,6.4c2.8,1,5.8,1.6,8.8,1.8
	c-2.7-4-3.6-8.9-4.1-13.6c-0.3-3.4-0.4-6.8-0.1-10.2c0.4-5,1.3-10,3.7-14.5C99.8,213.1,94.5,214.8,90.1,218z M114.7,212.6
	c2,3.6,2.9,7.8,3.5,11.9c0.1,1.2,0.3,2.3,0.3,3.5c0,2.8,0.1,5.6-0.1,8.4c-0.3,2.3-0.5,4.6-1.1,6.8c-0.7,2.7-1.6,5.4-3.1,7.7
	c2.7-0.1,5.4-0.7,8-1.5c3.8-1.2,7.3-3.2,10.2-5.9c2.3-2.2,4-4.9,4.9-7.9c0.6-2.3,0.7-4.8,0.1-7.2c-0.9-3.7-3.2-6.8-6-9.3
	C126.6,215.2,120.7,213.2,114.7,212.6z M67.1,222.5c-3,1.4-5.6,3.6-7,6.6c-1.3,2.7-1.6,5.9-1,8.8c0.6,3,2.3,5.6,4.7,7.5
	c3.1,2.5,7,3.8,10.9,4.4c3.4,0.5,6.8,0.6,10.2,0c-2.2-0.9-4.3-2-6.2-3.3c-3.4-2.3-6.4-5.5-7.8-9.4c-2-5.6-0.6-12,3-16.7
	C71.6,220.8,69.3,221.5,67.1,222.5z M145.9,220.5c2.5,3.2,4,7.3,3.9,11.4c0.1,3.3-1.1,6.5-2.9,9.2c-1,1.4-2.2,2.6-3.5,3.8
	c-2.5,2-5.4,3.6-8.4,4.9c1,0.3,2,0.2,3,0.3c2.2,0.2,4.5,0,6.7-0.3c3.3-0.5,6.7-1.4,9.5-3.2c2.8-1.7,5.1-4.3,6.1-7.5
	c0.8-2.5,0.9-5.2,0.2-7.8c-0.7-2.9-2.5-5.4-4.9-7.2C152.8,222.2,149.4,221,145.9,220.5z"/>
<path class="st0" d="M110.6,273.7c1,0,2.2,0,3.3,0c3.6,0.1,7.3,0,10.9,0.2c7.9,0.1,15.8,0.7,23.7,1.3c11.2,0.9,22.4,2.2,33.5,4
	c3.7,19.7,7,39.4,10.4,59.1c1.9,11.2,3.8,22.4,5.7,33.7c0.4,2.3,1,4.6,0.9,6.9c0,1.2,0,2.4-0.1,3.6c-0.5,3.4-1.6,6.7-3.5,9.5
	c-2.1,3-4.8,5.6-7.7,7.8c-5.3,3.9-10.7,7.6-16.1,11.3c-17.5,12.1-35.2,24.1-52.8,36.1c-2.4,1.6-4.8,3.3-7.2,4.9
	c-0.5,0.4-1.1-0.2-1.5-0.4c-12.5-8.2-25-16.5-37.4-24.8c-11.7-7.9-23.4-15.7-35-23.7c-2.6-1.9-5.3-3.6-7.6-5.8c-2.1-1.9-4-4-5.4-6.5
	c-1.9-3.4-2.9-7.3-2.8-11.2c-0.1-2.8,0.6-5.6,1.1-8.4c5.6-30.5,11.2-61,16.9-91.4c0.7-0.2,1.3-0.3,2-0.4c3.8-0.7,7.6-1.2,11.4-1.8
	l0.1,0c0,0.2-0.1,0.5-0.1,0.6c-3,16-5.7,32-8.5,48.1c-3,17.1-5.8,34.2-8.8,51.3c-0.5,3,0.1,6.2,2,8.6c2.2,2.9,5.3,5,8.3,7.1
	c3.4,2.4,6.9,4.7,10.4,7c11.9,7.9,23.8,15.7,35.7,23.5c6,3.9,11.9,7.9,17.9,11.7c0.1-0.3,0.1-0.6,0.1-1c0-50.8,0-101.6,0-152.4
	C110.6,279.4,110.7,276.6,110.6,273.7L110.6,273.7z M150.3,296.7c-0.7,0.5-0.6,1.5,0,2.1c-1.2,0.2-2.5,0.4-3.6,1.1
	c-0.2,0.1-0.5,0.3-0.8,0.4c-1,0.1-2.1,0.4-2.9,1c-0.7,0.5-1.3,1.3-1.2,2.2c0,1.1,0.8,2,1.7,2.5c0.6,0.4,1.3,0.4,1.9,0.7
	c0,0.4,0,0.8,0.1,1.1c1.1,0,2.1-0.3,3.2-0.4c2.8-0.2,5.5-0.1,8.2,0.5c0.1-0.5-0.1-1.4,0.6-1.4c1.2-0.2,2.5-1,2.9-2.2
	c0.4-1,0-2.3-0.9-2.9c-0.9-0.6-2-0.9-3-1.1c-0.4,0-0.6-0.2-0.9-0.4c-1-0.6-2.2-0.9-3.4-1c0.3-0.4,0.6-0.9,0.4-1.4
	C152.2,296.5,151,296,150.3,296.7z M161.8,308.3c2.3,2.1,3.4,5.3,3.4,8.3c0.3,1.7-0.1,3.4-0.1,5.1c-0.3,2.6-0.7,5.1-1.2,7.7
	c-0.4,2.4-0.9,4.8-1,7.3c0.1,3.4,1.5,6.6,3.2,9.5c1.6,2.8,3.6,5.4,5.1,8.2c0.5,1,1.2,2.2,0.9,3.4c-0.3,0.7-0.8,1.5-1.7,1.4
	c-1.1,0.1-1.9-0.8-2.6-1.5c-1.5-1.8-2.7-3.8-3.7-5.9c-1.3-2.9-3.7-5.1-5.9-7.4c-1.3-1.3-2.6-2.6-3.9-3.8c-0.1-0.1-0.3-0.3-0.2-0.5
	c2.4-2,3.8-4.9,4.3-7.9c0.1-0.4,0-0.8,0.3-1.1c0.3,0.3,0.5,0.8,1,0.6c0.1-1,0-2.1,0-3.2c0,1.1,0.1,2.2,0,3.3c-0.1,0-0.3,0.1-0.4,0.1
	c0.1,0.1,0.2,0.2,0.3,0.3c0.4,0,0.2-0.5,0.2-0.7c-0.1-1.9,0.2-3.8,0.2-5.7c0.3-1.6-0.1-3.1-0.3-4.6c0.5,0,1.1,0,1.6,0
	c-0.2-3.3-0.7-6.7-2.7-9.4c-1.4-1.9-3.6-3-5.9-3.2c-3.1-0.4-6.2,0.3-9.2,1.1c-0.5,0.1-0.5,0.6-0.6,0.9c0.8,0.2,1.6-0.1,2.3,0.3
	c-0.6,0.2-1.2,0.4-1.7,0.6c-0.2,0.1-0.3,0.4-0.3,0.6c0,1.5,0.4,3.1,1.4,4.3c0.6-0.6,0.7-1.6,1.6-2c0.4-0.3,0.8,0.2,1.1,0.5
	c1,1.1,1.1,2.9,0.8,4.3c-0.1,0.8-1.1,0.8-1.7,0.6c-0.5-0.2-0.8-0.6-1-1.1c-0.8,2.1-0.4,4.8,1.3,6.4c0.1-0.7,0.1-1.5,0.6-2
	c0.4-0.6,1.3-0.8,2-0.8c0,1.4-0.6,3-1.9,3.7c-1.3,0.7-2.9,0.7-4.3,1.1c-1.9,0.5-3.5,1.7-4.8,3.1c-1.9,2.1-3.3,4.6-5,6.9
	c-1.2,1.5-2.6,2.9-4.5,3.5c0.1,0.6,0.4,1.2,0.7,1.7c0.8,1.3,2,2.3,3.4,3c0,0.6-0.4,1-0.7,1.4c-1.1,1.6-2.3,3.2-3.7,4.4
	c-0.4,0.3-0.8,0.6-1.3,0.6c-0.5-0.6-0.9-1.5-1.7-1.7c-1.1-0.1-2.1,0.4-3.1,0.6c-0.2,0.3-0.3,0.6-0.4,1c0.4,0.1,0.8,0.2,1.2,0.4
	c0,0.6,0,1.1,0,1.7c0.9,0.2,1.8,0.3,2.6,0.5c0,0.1,0,0.4,0,0.5c-0.6-0.1-1.2-0.2-1.8-0.4c-0.4,0.1-0.9,0.1-1.1,0.5
	c-0.7,1-1.4,2.2-1.3,3.5c0.3-0.1,0.5-0.3,0.8-0.5c0.5,0,0.6,0.6,0.7,1c0.2,0.1,0.5,0.4,0.7,0.1c0.7-0.6,1.3-1.3,2-1.9
	c0.3-0.1,0.4,0.2,0.4,0.4c-0.6,0.7-1.2,1.2-1.8,1.9c-0.1,0.1-0.3,0.3-0.2,0.5c0,1.2-0.4,2.5,0,3.7c0.5-0.3,0.8-0.9,1.3-1.1
	c0.4,0.1,0.8,0.5,1.3,0.5c1.4-0.4,1.9-1.8,2.6-2.9c0.6,0.4,1.4,0.6,2.1,0.7c0.1,0.4,0.1,0.8,0.2,1.1c0,0,0.1,0,0.2,0
	c0.6-0.7,1.1-1.6,1.1-2.5c0-1.2-0.2-2.3,0-3.5c0.2-1,0.8-1.8,1.5-2.5c0.4,0.2,0.8,0.4,1.2,0.5c0.9,0.2,1.8,0.1,2.7-0.3
	c0.6-0.2,1.1-0.8,1.3-1.4c-0.9-0.3-1.9-1.2-1.7-2.3c0.2-0.7,0.7-1.3,1.5-1.5c1.2-0.3,2.5-0.1,3.6,0.4c3.5,1.5,5.7,4.7,8.3,7.3
	c0.2,1.3-0.1,2.7-0.1,4c-0.1,2.6-0.2,5.3,0.6,7.8c0.5,1.8,1.8,3.3,2.1,5.2c0.2,0.9,0,1.8,0,2.6c0.6-0.2,1.2-0.3,1.6-0.7
	c0.4-0.4,0.6-0.8,0.9-1.3c0.5,0,1.1,0,1.6,0.1c-0.1,0.3-0.2,0.5-0.3,0.7c-1,1.8-2,3.7-3.3,5.3c-0.7,0.8-1.4,1.7-2.4,2.1
	c-0.8,0.4-1.9,0.5-2.7,0c-1-0.5-1.9-1.5-3.1-1.5c-0.7,0-1.1,0.6-1.5,1c-0.4,0.4-1,0.3-1.6,0.5c-0.4,0.2-0.8,0.8-0.6,1.3
	c0.4,0,0.9,0,1.3,0.2c0.1,0.5,0.1,0.9,0.3,1.4c0.4-0.1,0.5-0.5,0.8-0.8c0.4-0.4,0.7-1,1.3-1.2c-0.1,0.2-0.2,0.4-0.4,0.6
	c-0.8,0.8-1.3,1.9-1.9,2.8c-0.4,0.6-0.2,1.4-0.2,2.1c0.1,0.3,0,0.7,0.3,0.8c0.2-0.3,0.4-0.7,0.6-1c0.8-0.3,0.8,0.7,1.4,0.9
	c0.5-1.2,0.5-2.6,0.9-3.9c0.1,0,0.3-0.1,0.4-0.2c0,0.2,0,0.5-0.1,0.7c-0.6,1.8-0.8,3.7-0.3,5.5c0,0.3,0.2,0.4,0.4,0.6
	c0.2-0.5,0.3-1.1,0.8-1.3c0.4-0.3,0.9-0.2,1.3-0.2c0-0.4,0.3-0.9,0-1.2l0.2,0c0-0.6,0-1.1,0-1.7c0.1-0.4,0.4-0.8,0.6-1.1
	c0,0.1,0,0.3-0.1,0.4c-0.6,1.8-0.4,3.8,0.1,5.6c0.2,0.2,0.5,0.3,0.7,0.5c0.2-0.6,0.3-1.1,0.4-1.7c0.9-0.2,1.9-0.3,2.9-0.5
	c0.4,0,0.6-0.3,0.8-0.6c0.9-1.2,1.1-2.7,1.7-4c0.3-0.7,0.8-1.5,1.5-1.8c0.7-0.2,1.1,0.4,1.5,0.8c0.4-1,0.4-2.1,0.6-3.2
	c0.2-1.9,1.4-3.4,2.4-5c1-1.5,1.8-3.2,2-5c0.1-1.4,0.1-2.8-0.4-4.1c-0.5,0.7-0.9,1.5-1.4,2.2c-1.6,0.1-2.7-1.5-3-2.9
	c-0.4-2.9-0.1-6,1.7-8.4c0.4-0.5,0.8-1,1.5-0.9c1.1,3,4.1,5.2,7.2,5.5c1.8,0.2,3.8-0.6,4.9-2.1c0.6-0.9,1.1-1.9,1.1-3
	c0.3-1.1-0.1-2.3-0.6-3.3c-0.7-1.4-1.6-2.7-2.4-4.1c0.5-2.4,1.6-4.5,2.9-6.6c-1.9,0.7-3.3,2.2-4.3,3.9c0.1-1.1,0.5-2.1,0.9-3
	c0.5-1.4,1.3-2.6,2-3.9c-1.8,0.5-3,2-4.2,3.4c0.6-2.4,1.6-4.8,3-6.9c-0.2,0-0.5,0.1-0.7,0.2c-1.8,0.9-3.2,2.5-4.1,4.3
	c-1.3-3.4-0.8-7.2-0.4-10.7c0.6-5,1.5-9.9,2.8-14.7c0.6-2.1,1.7-4.2,3.6-5.5c-3-0.5-5.7,2.5-5.4,5.4c0,0-0.1,0-0.1,0
	c0-1-0.3-2-0.7-3C167.2,310.9,164.6,308.8,161.8,308.3z M139.2,317.3c-0.3,0.9-0.4,2,0.3,2.8c0.6,0.7,1.7,0.6,2.5,0.3
	c1.4-0.5,2.3-1.7,3.5-2.5c0.6-0.4,1.3-0.6,2-0.7c-0.7-0.3-1.5-0.4-2.2-0.1c-1.2,0.5-2.4,1-3.6,1.2c-0.5,0.1-1.2,0.1-1.5-0.4
	c-0.3-0.8,0-1.6,0.3-2.3C139.8,316,139.4,316.7,139.2,317.3z M129.4,318.8c0.1,1-0.7,1.8-0.7,2.7c0.1,0.8,0.2,1.6,0.2,2.4
	c-0.8-0.7-0.4-2-1.2-2.8c-0.8-0.8-1.9-1.5-3.1-1.8c0.2,1.1-0.2,2.3,0.5,3.3c0.4,0.6,0.7,1.3,1.1,1.8c0,0.3,0,0.6,0,0.8
	c-0.1,0-0.3,0-0.4,0c-0.5-0.6-1.1-1.3-1.6-1.9c-1-0.5-2.2,0-3.1,0.3c0.5,0.5,1,1.1,1.4,1.7c1,1.6,2.1,3.3,2,5.3
	c0,1.3-0.8,2.4-1.7,3.1c0.5,0.7,1.4,0.7,2.1,0.7c0.4,0,0.8,0.1,1.1-0.2c0.5-0.6,0.8-1.3,1.3-1.8c0.1,0,0.2,0,0.3,0
	c1.4,1.7,2.7,3.5,4.1,5.1c1.2-1,2-2.5,2.9-3.8c0.2-0.3,0.4-0.5,0.5-0.9c-0.6-2.5-3.5-3.6-4.1-6.2c-0.4-2.1,0.6-4.3,0-6.4
	C130.6,319.8,130.1,319.1,129.4,318.8z M144.1,352.5c-1.3,0.5-2.1,1.7-3,2.7c-1,1.2-2.4,2.2-4,2.1c0.1,0.9,0.4,1.8,1,2.5
	c0.4,0.5,1.1,0.7,1.7,0.9c0.1,0.3,0.1,0.7,0.1,1.1c0.1,2.5,1.1,5,2.9,6.9c0.1,0.2,0.6,0.5,0.3,0.8c-1.2,0.2-2.3,0.1-3.5,0.1
	c-0.9,0-1.9,0-2.7-0.4c-1.5-0.8-2.2-2.4-3.4-3.4c-0.9-0.7-2-1.1-3.2-0.9c0.2,0.3,0.4,0.6,0.6,1c0.1,0.5-0.2,1-0.3,1.4
	c0.7,0.2,1.4,0.4,2.1,0.6c0,0.2,0,0.4,0,0.6c-1.1-0.2-2.3-0.4-3.3,0.2c-0.7,0.3-1.1,1-1.3,1.7c0.4,0,0.8,0,1.2,0.1
	c0.3,0.6,0.6,1.2,0.7,1.9c0.7-0.8,1.4-1.6,2.2-2.3c0,0.9-0.5,1.7-1,2.4c-0.7,0.9-1.4,2-1.3,3.3c0.5-0.1,0.9-0.5,1.3-0.7
	c0.3,0.4,0.7,0.8,1.1,1.2c0.6-0.8,0.6-1.7,0.9-2.6c0.1,0,0.3,0,0.4,0c-0.1,1-0.5,1.9-0.6,2.9c-0.2,1-0.2,2.2,0.7,2.9
	c0.2-0.5,0.3-0.9,0.4-1.4c0.4-0.1,0.9,0,1.3,0.1c1,0.3,1.9-0.5,2.4-1.3c0.5-0.7,1.2-1.3,2.2-1.4c0.3,0.3,0.6,0.6,0.7,1
	c0.1,0.4,0.1,0.8,0.2,1.2c1-0.4,1.5-1.3,2.3-1.9c1.4-0.8,3.1-0.8,4.7-0.8c1.5-0.1,2.7-1.1,3.5-2.2c-1.6-1.5-2.9-3.3-4-5.2
	c-0.7-1.4-1.3-3-1.1-4.7c0.2-0.7,0.4-1.5,1.2-1.8c0.9-0.5,1.8,0.1,2.5,0.6c0.1-1,0.2-2,0.2-2.9c-0.6-1-1.8-1.5-2.3-2.6
	c-0.3-0.6,0-1.3-0.2-1.9c-0.1,0.6,0,1.1-0.1,1.7c-0.1-0.6,0-1.2,0.1-1.9C146.8,353.1,145.5,352.2,144.1,352.5z"/>
<path class="st0" d="M75.7,302.5c2,0,3.9,0,5.9,0c0,1.7,0,3.5,0,5.2c1.5,0,3,0,4.5,0c0.1-0.2,0.1-0.4,0.1-0.6c0-1.4,0-2.9,0-4.3
	c1.9,0,3.7,0,5.6,0c0,4.2,0,8.4,0,12.6c-8.9,0-17.8,0-26.8,0c0-4.2,0-8.4,0-12.6c1.9,0,3.7,0,5.6,0c0,1.1,0,2.1,0,3.2
	c0,0.6-0.1,1.2,0.1,1.7c1.6-0.1,3.1,0,4.7,0C75.8,306,75.5,304.3,75.7,302.5z M147.1,301.8c0.7-1,2-1.5,3.2-1.5
	c-0.3,1-0.6,2-0.4,3.1c0,0.8,0.4,1.4,0.4,2.2c-1.1-0.1-2.2-0.5-2.9-1.3C146.7,303.6,146.6,302.5,147.1,301.8z M151.9,300.3
	c1.1-0.1,2.3,0.4,3.1,1.3c0.5,0.6,0.6,1.4,0.4,2.1c-0.7,1.3-2.2,1.8-3.6,1.9C152.7,304,152.7,301.9,151.9,300.3z M143.2,302.7
	c0.3-0.9,1.3-1.3,2.1-1.4c-0.2,0.6-0.6,1.1-0.5,1.8c0.1,0.8,0.7,1.5,1.4,1.9c0,0.1,0,0.4,0,0.5c-0.9-0.1-1.9-0.2-2.6-0.9
	C143.1,304.2,143.1,303.4,143.2,302.7z M157,301.4c0.8,0.1,1.8,0.5,2.1,1.4c0.2,0.7,0.1,1.5-0.5,2c-0.9,0.8-2.1,0.8-3.2,0.7
	c0.8-0.5,1.7-0.9,2-1.8C157.7,302.9,157.3,302.1,157,301.4z M148.7,310.3c1.2,0,2.4-0.1,3.6,0.1c0.2,0.1,0.5,0,0.5,0.3
	c-1,0.5-2,0.8-3,1.2c-0.3,0.1-0.7,0.2-1,0.3C148.7,311.6,148.7,311,148.7,310.3z M69.5,317.6c6,0,12,0,17.9,0c0.3,1.5,0.4,3,0.6,4.5
	c1.7,14,3.5,28,5.2,41.9c0.1,1.2,0.4,2.3,0.4,3.5c-10.1,0-20.3,0-30.4,0c0.2-2.3,0.6-4.6,0.8-6.9c1.8-14.2,3.5-28.5,5.3-42.7
	C69.4,317.8,69.5,317.7,69.5,317.6z M74.2,332.1c-0.1,1-0.2,2,0.1,2.9c2.8,0,5.6,0,8.3,0c0.2-1,0.1-2,0.1-3c-0.1,0-0.2-0.1-0.2-0.2
	c-2.7,0-5.4,0-8.2,0C74.3,332,74.2,332.1,74.2,332.1z M74.3,341.9c0,1,0,2,0,3c2.8,0,5.6,0,8.4,0c0.1-1,0-2,0.1-3
	c-0.2-0.1-0.5-0.2-0.8-0.2c-2.3,0-4.6,0-6.9,0C74.8,341.7,74.5,341.8,74.3,341.9z M74.1,351.7c0.1,1-0.1,2,0.2,3c2.8,0,5.5,0,8.3,0
	c0.3-1,0.1-2,0.2-3c-0.2-0.1-0.5-0.2-0.8-0.2c-2.3,0-4.6,0-6.9,0C74.8,351.6,74.4,351.7,74.1,351.7z M59.8,369.8
	c12.4,0,24.9,0,37.3,0c0,4.2,0,8.4,0,12.6c-3.3,0-6.6,0-9.9,0c-0.1-1.1,0.1-2.2-0.2-3.3c-5.7,0-11.4,0-17.1,0c0,1.1,0,2.2,0,3.3
	c-3.4,0-6.7,0-10.1,0C59.8,378.3,59.8,374.1,59.8,369.8z"/>
<path class="st1" d="M245.9,246.2c19.9,0,39.8,0,59.6,0c11.9-0.1,23.8,0.4,35.6,2.4c8.8,1.6,17.6,4,25.2,8.7c3.7,2.2,7,5,9.7,8.4
	c2.4,3,4.3,6.4,5.5,10c1.6,4.8,2.2,9.8,2.2,14.8c-0.1,4.2-0.7,8.4-2.1,12.3c-1.5,4.3-4.1,8.3-7.3,11.5c-5.7,5.7-13.1,9.2-20.7,11.6
	c-1.8,0.6-3.7,1-5.5,1.6c8.5,1.6,17.1,4.2,24.4,8.9c3.5,2.3,6.7,5.2,9.2,8.6c2.3,3.1,4,6.6,5.1,10.2c1.4,4.6,1.9,9.5,1.8,14.4
	c-0.1,5.3-0.9,10.7-2.7,15.8c-2.4,6.8-7,12.7-12.8,16.9c-6.7,4.9-14.8,7.8-22.9,9.5c-6.3,1.3-12.7,2-19.1,2.3
	c-4.7,0.3-9.5,0.2-14.2,0.2c-12.8,0-25.5,0-38.3,0c-11,0-21.9,0.1-32.9,0C245.9,358.3,245.9,302.2,245.9,246.2z M291.1,276.7
	c0,12.5,0,25,0,37.6c3.4,0,6.9,0,10.3,0c6-0.1,12,0.3,17.9-0.6c4.4-0.7,8.9-1.8,12.5-4.5c3.1-2.2,5.2-5.8,5.9-9.5
	c0.8-4.3,0.5-8.9-1.6-12.8c-1.9-3.4-5.2-5.8-8.7-7.3c-5.1-2.1-10.6-2.7-16-2.9C304.5,276.7,297.8,276.7,291.1,276.7z M291.1,343.4
	c0,13.5,0,26.9,0,40.4c5.6,0,11.1,0,16.7,0c6.2,0,12.4-0.2,18.3-1.8c4-1,8.1-2.8,10.9-6c2.8-3.2,3.9-7.4,4.1-11.6
	c0.2-4-0.5-8.2-2.9-11.6c-2.3-3.4-5.9-5.5-9.7-6.8c-6.1-2.1-12.5-2.5-18.9-2.6C303.5,343.4,297.3,343.4,291.1,343.4z M410.8,246.2
	c24.4,0,48.7,0,73.1,0c7.9-0.1,15.8,0.2,23.6,1.4c6.6,1,13,2.7,19.1,5.4c5.5,2.4,10.6,5.7,14.9,9.9c4,3.9,7.2,8.7,9.4,13.9
	c2,4.8,3.2,9.8,3.8,14.9c0.7,6.5,0.6,13-0.4,19.4c-0.8,4.8-2.1,9.4-4.2,13.8c-4.3,9.2-11.8,16.7-20.6,21.5
	c-4.8,2.6-10.1,4.5-15.4,5.8c-7.2,1.8-14.6,2.4-22,2.5c-11.4,0-22.7,0-34.1,0c0,19.2,0,38.5,0,57.7c0,0.7-0.1,1.3-0.1,2
	c-15.6,0-31.2,0-46.9,0c-0.1-9.7,0-19.3,0-29C410.8,339,410.7,292.6,410.8,246.2z M457.7,277.6c0,14.7,0,29.3,0,44
	c6.5,0,13,0,19.5,0c4.1,0.1,8.3-0.1,12.3-0.9c3.4-0.7,6.7-1.7,9.6-3.6c2.2-1.4,4.1-3.3,5.4-5.5c1.8-2.9,2.6-6.2,2.9-9.6
	c0.3-4,0.1-8.1-1.4-11.9c-1.3-3.4-3.7-6.3-6.8-8.2c-3-1.8-6.4-2.8-9.8-3.4c-4.4-0.8-8.9-0.9-13.4-0.8
	C469.9,277.6,463.8,277.6,457.7,277.6z M575.2,246.2c15.6-0.1,31.2,0,46.7,0c0,51.8,0,103.5,0,155.3c0,4.3,0,8.6,0,12.9
	c-15.6,0.1-31.2,0-46.7,0C575.2,358.3,575.3,302.2,575.2,246.2z"/>
</svg>
