<?xml version="1.0" encoding="UTF-8" standalone="no"?>
<!-- Created with Inkscape (http://www.inkscape.org/) -->

<svg
   xmlns:dc="http://purl.org/dc/elements/1.1/"
   xmlns:cc="http://creativecommons.org/ns#"
   xmlns:rdf="http://www.w3.org/1999/02/22-rdf-syntax-ns#"
   xmlns:svg="http://www.w3.org/2000/svg"
   xmlns="http://www.w3.org/2000/svg"
   xmlns:sodipodi="http://sodipodi.sourceforge.net/DTD/sodipodi-0.dtd"
   xmlns:inkscape="http://www.inkscape.org/namespaces/inkscape"
   width="56.444443mm"
   height="26.784872mm"
   viewBox="0 0 199.99999 94.907027"
   id="svg2"
   version="1.1"
   inkscape:version="0.91 r13725"
   sodipodi:docname="Landbank.svg"
   style="enable-background:new">
  <defs
     id="defs4" />
  <sodipodi:namedview
     id="base"
     pagecolor="#ffffff"
     bordercolor="#666666"
     borderopacity="1.0"
     inkscape:pageopacity="0.0"
     inkscape:pageshadow="2"
     inkscape:zoom="0.49497475"
     inkscape:cx="104.40325"
     inkscape:cy="-58.88672"
     inkscape:document-units="px"
     inkscape:current-layer="g4318"
     showgrid="false"
     inkscape:object-paths="true"
     inkscape:snap-intersection-paths="true"
     inkscape:object-nodes="true"
     inkscape:snap-smooth-nodes="true"
     inkscape:snap-global="false"
     inkscape:snap-object-midpoints="true"
     inkscape:snap-center="true"
     inkscape:window-width="1366"
     inkscape:window-height="705"
     inkscape:window-x="-8"
     inkscape:window-y="-8"
     inkscape:window-maximized="1"
     fit-margin-top="0"
     fit-margin-left="0"
     fit-margin-right="0"
     fit-margin-bottom="0" />
  <metadata
     id="metadata7">
    <rdf:RDF>
      <cc:Work
         rdf:about="">
        <dc:format>image/svg+xml</dc:format>
        <dc:type
           rdf:resource="http://purl.org/dc/dcmitype/StillImage" />
        <dc:title></dc:title>
      </cc:Work>
    </rdf:RDF>
  </metadata>
  <g
     inkscape:groupmode="layer"
     id="layer2"
     inkscape:label="Layer 2"
     style="display:inline;opacity:1"
     transform="translate(-272.04725,-478.72759)">
    <g
       id="g4318">
      <g
         id="g4184"
         transform="matrix(0.26184266,0,0,0.26184266,274.62941,335.62306)">
        <g
           transform="matrix(0.45747159,0,0,0.45747159,495.93481,419.43023)"
           id="g4158">
          <path
             inkscape:connector-curvature="0"
             id="path4171"
             d="m -288.52902,277.82812 c 0,0 -6.43013,32.77676 -7.05078,32.84766 l 2.19532,0 a 215.64142,215.64142 0 0 0 -19.63086,2.95508 l 1.7832,-0.55859 c -0.61345,0.11794 -16.55078,-29.23829 -16.55078,-29.23829 l -33.81641,10.59766 c 0,0 3.66676,33.20183 3.09571,33.45508 l 2.17187,-0.67969 a 215.64142,215.64142 0 0 0 -18.09766,8.83008 l 1.70508,-1.18555 c -0.55011,0.29599 -24.53515,-22.94922 -24.53515,-22.94922 l -29.10157,20.22461 c 0,0 13.42622,30.58562 12.95703,30.99805 l 1.94141,-1.34961 a 215.64142,215.64142 0 0 0 -14.79492,14.01172 l 1.36914,-1.76367 c -0.43643,0.44696 -30.27734,-14.56055 -30.27734,-14.56055 l -21.72071,28.00195 c 0,0 21.95916,25.16926 21.63477,25.70313 l 1.47851,-1.90625 a 215.64142,215.64142 0 0 0 -9.99414,17.93164 l 0.81446,-2.18945 c -0.2828,0.55702 -33.2461,-4.8418 -33.2461,-4.8418 l -12.35351,33.2168 c 0,0 28.48193,17.4502 28.33203,18.05664 l 0.85156,-2.28907 a 215.64142,215.64142 0 0 0 -4.1875,20.19141 l 0.125,-2.39648 c -0.10328,0.6161 -33.17383,5.32226 -33.17383,5.32226 l -1.85351,35.39063 c 0,0 32.39529,8.13624 32.43359,8.75976 l 0.0312,-0.59375 a 215.64142,215.64142 0 0 0 2.44531,21.78321 l -27.75195,12.42187 7.5293,31.35938 c 30.07124,98.20912 124.98225,165.83706 232.96094,165.99414 107.97868,-0.15708 202.889687,-67.78502 232.960927,-165.99414 l 7.5293,-31.35938 -27.9082,-12.49219 a 215.64142,215.64142 0 0 0 2.50586,-23.55468 l 0.12695,2.43554 c 0.0383,-0.62352 32.43555,-8.75976 32.43555,-8.75976 l -1.85547,-35.39063 c 0,0 -33.0686,-4.70616 -33.17188,-5.32226 l 0.0254,0.48632 a 215.64142,215.64142 0 0 0 -3.81836,-17.55468 l 0.58203,1.5625 c -0.1499,-0.60644 28.33008,-18.05664 28.33008,-18.05664 l -12.35351,-33.2168 c 0,0 -32.9633,5.39882 -33.2461,4.8418 a 215.64142,215.64142 0 0 0 -8.61328,-15.01563 l 0.91406,1.17969 c -0.32435,-0.53387 21.63481,-25.70313 21.63481,-25.70313 l -21.72266,-28.00195 c 0,0 -29.838957,15.00751 -30.275387,14.56055 l 0.16016,0.20703 a 215.64142,215.64142 0 0 0 -12.72266,-11.85352 l 1.07617,0.74805 c -0.46919,-0.41243 12.95899,-30.99805 12.95899,-30.99805 l -29.10156,-20.22461 c 0,0 -23.987,23.24521 -24.53711,22.94922 l 0.39062,0.27149 a 215.64142,215.64142 0 0 0 -15.66992,-7.56836 l 1.06055,0.33203 c -0.57105,-0.25325 3.0957,-33.45508 3.0957,-33.45508 l -33.81836,-10.59766 c 0,0 -15.93733,29.35623 -16.55078,29.23829 l 0.66016,0.20703 a 215.64142,215.64142 0 0 0 -17.22657,-2.60352 l 0.91407,0 c -0.62065,-0.0709 -7.04883,-32.84766 -7.04883,-32.84766 l -35.43946,0 z"
             style="opacity:1;fill:#1cb14d;fill-opacity:1;stroke:none;stroke-width:2;stroke-linecap:butt;stroke-linejoin:miter;stroke-miterlimit:4;stroke-dasharray:none;stroke-dashoffset:0;stroke-opacity:1" />
          <path
             sodipodi:nodetypes="scscs"
             inkscape:connector-curvature="0"
             d="m -322.85714,434.14792 c -0.35714,53.97725 35.98102,87.15279 51.42857,96.07143 15.44755,-8.91864 51.78571,-42.09418 51.42857,-96.07143 -0.35714,-53.97725 -35.98102,-87.15279 -51.42857,-96.07143 -15.44755,8.91864 -51.07143,42.09418 -51.42857,96.07143 z"
             style="fill:#fdc14f;fill-opacity:1;fill-rule:evenodd;stroke:none;stroke-width:1px;stroke-linecap:butt;stroke-linejoin:miter;stroke-opacity:1"
             id="path4222" />
          <path
             sodipodi:nodetypes="ccccc"
             inkscape:connector-curvature="0"
             id="path4256"
             d="m -487.64425,609.37305 c 6.41641,16.52492 14.66386,32.13173 24.49805,46.57226 90.12705,-54.70459 220.61908,34.59394 376.509757,11.24024 11.13678,-14.42439 20.62128,-30.18882 28.15821,-47.02149 -223.644507,77.15502 -337.752857,-46.42513 -429.166017,-10.79101 z"
             style="fill:#fdc14f;fill-opacity:1;fill-rule:evenodd;stroke:none;stroke-width:1px;stroke-linecap:butt;stroke-linejoin:miter;stroke-opacity:1" />
          <path
             sodipodi:nodetypes="ccccc"
             inkscape:connector-curvature="0"
             id="path4258"
             d="m -445.48995,678.70312 c 9.89687,11.252 20.86426,21.5364 32.74414,30.69922 138.05106,-73.9863 194.96316,-11.44311 269.18555,10.44727 13.92589,-9.1162 26.81094,-19.68483 38.44335,-31.49414 -118.18403,17.09985 -207.25551,-70.97403 -340.37304,-9.65235 z"
             style="fill:#fdc14f;fill-opacity:1;fill-rule:evenodd;stroke:none;stroke-width:1px;stroke-linecap:butt;stroke-linejoin:miter;stroke-opacity:1" />
          <path
             sodipodi:nodetypes="scscs"
             inkscape:connector-curvature="0"
             id="path4262"
             d="m -288.13644,692.42383 c -34.82851,0 -69.65282,11.53529 -98.26758,34.58984 34.04394,19.52605 73.50571,30.68945 115.59376,30.68945 33.2331,0 64.82152,-6.97468 93.40624,-19.51562 -30.60589,-30.50765 -70.66781,-45.76367 -110.73242,-45.76367 z"
             style="opacity:1;fill:#fdc14f;fill-opacity:1;stroke:none;stroke-width:0.99999994;stroke-linecap:butt;stroke-linejoin:miter;stroke-miterlimit:4;stroke-dasharray:none;stroke-dashoffset:0;stroke-opacity:1" />
          <rect
             y="617.89789"
             x="-287.68491"
             height="143.92857"
             width="33.75"
             id="rect4315"
             style="opacity:1;fill:#1cb14d;fill-opacity:1;stroke:none;stroke-width:12;stroke-linecap:butt;stroke-linejoin:miter;stroke-miterlimit:4;stroke-dasharray:none;stroke-dashoffset:0;stroke-opacity:1" />
          <path
             inkscape:connector-curvature="0"
             id="path4225"
             d="m -405.61133,464.35938 c -1.22185,0.0186 -2.3416,0.0761 -3.34765,0.16406 -4.99281,15.36751 -8.65862,60.67241 24.69921,103.10937 3.09078,3.93201 6.28719,7.55167 9.55274,10.88477 21.74196,24.10369 55.23132,40.39219 93.36133,42.94726 l 0,135.99024 c 3.49334,0.15554 7.00319,0.24804 10.53515,0.24804 3.53195,0 7.04182,-0.0925 10.53516,-0.24804 l 0,-135.99219 c 38.06506,-2.55086 71.50309,-18.78793 93.24805,-42.82422 0.0175,-0.0179 0.0352,-0.0368 0.0527,-0.0547 3.28751,-3.35084 6.50259,-6.99382 9.61328,-10.95117 33.35783,-42.43696 29.69203,-87.74186 24.69922,-103.10937 -1.00605,-0.088 -2.12385,-0.1455 -3.3457,-0.16406 -18.32782,-0.27876 -59.83633,8.00473 -91.56641,47.42578 -27.00455,33.55011 -29.81211,69.40232 -27.31055,90.33789 -4.00219,4.21447 -9.655,6.84586 -15.92578,6.8457 -6.2708,1.6e-4 -11.92359,-2.63123 -15.92578,-6.8457 2.50156,-20.93557 -0.306,-56.78778 -27.31055,-90.33789 -31.73007,-39.42105 -73.23663,-47.70455 -91.56445,-47.42578 z"
             style="fill:#fdc14f;fill-opacity:1;fill-rule:evenodd;stroke:none;stroke-width:1px;stroke-linecap:butt;stroke-linejoin:miter;stroke-opacity:1" />
        </g>
        <g
           id="text4154"
           style="font-style:normal;font-weight:normal;font-size:123.44525146px;line-height:125%;font-family:sans-serif;text-align:center;letter-spacing:0px;word-spacing:0px;text-anchor:middle;fill:#1cb14d;fill-opacity:1;stroke:none;stroke-width:1px;stroke-linecap:butt;stroke-linejoin:miter;stroke-opacity:1">
          <path
             id="path4168"
             style="font-style:normal;font-variant:normal;font-weight:900;font-stretch:normal;font-family:Arial;-inkscape-font-specification:'Arial Heavy';fill:#1cb14d;fill-opacity:1"
             d="m -9.8615001,820.62232 27.3050291,0 0,66.60498 42.615133,0 0,21.75964 -69.9201621,0 0,-88.36462 z"
             inkscape:connector-curvature="0" />
          <path
             id="path4170"
             style="font-style:normal;font-variant:normal;font-weight:900;font-stretch:normal;font-family:Arial;-inkscape-font-specification:'Arial Heavy';fill:#1cb14d;fill-opacity:1"
             d="m 126.96503,894.40015 -31.10242,0 -4.279597,14.58679 -27.907788,0 33.212077,-88.36462 29.776348,0 33.21207,88.36462 -28.57082,0 -4.33987,-14.58679 z m -5.72622,-19.1075 -9.76472,-31.76545 -9.70443,31.76545 19.46915,0 z"
             inkscape:connector-curvature="0" />
          <path
             id="path4172"
             style="font-style:normal;font-variant:normal;font-weight:900;font-stretch:normal;font-family:Arial;-inkscape-font-specification:'Arial Heavy';fill:#1cb14d;fill-opacity:1"
             d="m 168.73629,820.62232 25.49675,0 33.27235,48.88384 0,-48.88384 25.73785,0 0,88.36462 -25.73785,0 -33.09152,-48.52218 0,48.52218 -25.67758,0 0,-88.36462 z"
             inkscape:connector-curvature="0" />
          <path
             id="path4174"
             style="font-style:normal;font-variant:normal;font-weight:900;font-stretch:normal;font-family:Arial;-inkscape-font-specification:'Arial Heavy';fill:#1cb14d;fill-opacity:1"
             d="m 271.86853,820.62232 40.56575,0 q 11.99493,0 19.3486,3.2549 7.41395,3.25491 12.23603,9.34278 4.82208,6.08788 6.99201,14.16486 2.16994,8.07699 2.16994,17.11839 0,14.16486 -3.2549,22.00074 -3.19463,7.7756 -8.92085,13.07989 -5.72622,5.24401 -12.29631,6.99202 -8.98112,2.41104 -16.27452,2.41104 l -40.56575,0 0,-88.36462 z m 27.30503,20.01163 0,48.28108 6.69064,0 q 8.55919,0 12.17575,-1.86856 3.61656,-1.92883 5.66595,-6.63036 2.04938,-4.7618 2.04938,-15.37038 0,-14.04431 -4.58098,-19.22804 -4.58097,-5.18374 -15.18955,-5.18374 l -6.81119,0 z"
             inkscape:connector-curvature="0" />
          <path
             id="path4176"
             style="font-style:normal;font-variant:normal;font-weight:900;font-stretch:normal;font-family:Arial;-inkscape-font-specification:'Arial Heavy';fill:#1cb14d;fill-opacity:1"
             d="m 367.52653,820.62232 51.11405,0 q 12.77852,0 19.5897,6.32898 6.87147,6.32898 6.87147,15.67176 0,7.83588 -4.88236,13.44155 -3.2549,3.73711 -9.52361,5.90705 9.52361,2.29049 13.98404,7.89615 4.5207,5.5454 4.5207,13.98404 0,6.87146 -3.19463,12.35658 -3.19463,5.48511 -8.74002,8.67974 -3.43573,1.98911 -10.36747,2.89325 -9.22223,1.20552 -12.23603,1.20552 l -47.13584,0 0,-88.36462 z m 27.54614,34.6587 11.87437,0 q 6.38926,0 8.86057,-2.16994 2.53159,-2.23021 2.53159,-6.38925 0,-3.85767 -2.53159,-6.0276 -2.47131,-2.16994 -8.67974,-2.16994 l -12.0552,0 0,16.75673 z m 0,34.71898 13.92375,0 q 7.0523,0 9.94554,-2.47132 2.89325,-2.53159 2.89325,-6.75091 0,-3.91794 -2.89325,-6.2687 -2.83297,-2.41104 -10.00581,-2.41104 l -13.86348,0 0,17.90197 z"
             inkscape:connector-curvature="0" />
          <path
             id="path4178"
             style="font-style:normal;font-variant:normal;font-weight:900;font-stretch:normal;font-family:Arial;-inkscape-font-specification:'Arial Heavy';fill:#1cb14d;fill-opacity:1"
             d="m 515.6247,894.40015 -31.10241,0 -4.2796,14.58679 -27.90779,0 33.21208,-88.36462 29.77634,0 33.21208,88.36462 -28.57083,0 -4.33987,-14.58679 z m -5.72622,-19.1075 -9.76471,-31.76545 -9.70444,31.76545 19.46915,0 z"
             inkscape:connector-curvature="0" />
          <path
             id="path4180"
             style="font-style:normal;font-variant:normal;font-weight:900;font-stretch:normal;font-family:Arial;-inkscape-font-specification:'Arial Heavy';fill:#1cb14d;fill-opacity:1"
             d="m 557.39599,820.62232 25.49675,0 33.27235,48.88384 0,-48.88384 25.73785,0 0,88.36462 -25.73785,0 -33.09153,-48.52218 0,48.52218 -25.67757,0 0,-88.36462 z"
             inkscape:connector-curvature="0" />
          <path
             id="path4182"
             style="font-style:normal;font-variant:normal;font-weight:900;font-stretch:normal;font-family:Arial;-inkscape-font-specification:'Arial Heavy';fill:#1cb14d;fill-opacity:1"
             d="m 660.28707,820.62232 27.30503,0 0,33.3929 28.6311,-33.3929 36.28615,0 -32.18739,33.33263 33.63401,55.03199 -33.63401,0 -18.62528,-36.34643 -14.10458,14.76762 0,21.57881 -27.30503,0 0,-88.36462 z"
             inkscape:connector-curvature="0" />
        </g>
      </g>
    </g>
  </g>
</svg>
